<mxfile host="app.diagrams.net" modified="2024-06-19T01:38:20.447Z" agent="Mozilla/5.0 (Windows NT 10.0; Win64; x64) AppleWebKit/537.36 (KHTML, like Gecko) Chrome/125.0.0.0 Safari/537.36 Edg/125.0.0.0" etag="XY-YoJCxbeR_UYX-XcLZ" version="24.5.5" type="github">
  <diagram name="第 1 页" id="y6XD2A1U-bZ5UGIPNUo8">
    <mxGraphModel dx="1002" dy="665" grid="1" gridSize="10" guides="1" tooltips="1" connect="1" arrows="1" fold="1" page="1" pageScale="1" pageWidth="827" pageHeight="1169" math="0" shadow="0">
      <root>
        <mxCell id="0" />
        <mxCell id="1" parent="0" />
        <mxCell id="essUpSCobpZbOmE9Tkpl-1" value="Log Analytics 工作区" style="whiteSpace=wrap;html=1;labelBackgroundColor=none;" parent="1" vertex="1">
          <mxGeometry x="336" y="160" width="156" height="60" as="geometry" />
        </mxCell>
        <mxCell id="nnODPrwnomORkJrxSMh1-1" value="Log Analytics 工作区" style="whiteSpace=wrap;html=1;labelBackgroundColor=none;" vertex="1" parent="1">
          <mxGeometry x="530" y="150" width="156" height="60" as="geometry" />
        </mxCell>
      </root>
    </mxGraphModel>
  </diagram>
</mxfile>
